<mxfile host="app.diagrams.net" modified="2024-03-08T15:55:41.526Z" agent="Mozilla/5.0 (Macintosh; Intel Mac OS X 10.15; rv:121.0) Gecko/20100101 Firefox/121.0" version="24.0.2" etag="_AILMNc1TX6FNkBOG1na" type="github">
  <diagram name="Page-1" id="uWtBHQ0-tRF9v44ZKPC6">
    <mxGraphModel>
      <root>
        <mxCell id="0" />
        <mxCell id="1" parent="0" />
      </root>
    </mxGraphModel>
  </diagram>
</mxfile>
